<svg version='1.1' baseProfile='full' xmlns='http://www.w3.org/2000/svg' width='654.4774776491378' height='439.1385236316866'><g transform='translate(5, 5)'><g transform='scale(1.3539442807754996) translate(0, -45)'><g><g><polyline points="60,185 82,185 104,185 " style="fill: none; stroke: black;"></polyline></g></g><g><g><polyline points="268,90 310,90 " style="fill: none; stroke: black;"></polyline></g></g><g><g><polyline points="268,280 310,280 " style="fill: none; stroke: black;"></polyline></g></g><g><g><polyline points="372,185 394,185 416,185 " style="fill: none; stroke: black;"></polyline></g></g><g></g><g><g><polyline points="166,90 208,90 " style="fill: none; stroke: black;"></polyline></g><g><polyline points="166,280 208,280 " style="fill: none; stroke: black;"></polyline></g></g><g><g transform="translate(0, 140)"><path d="M 0 0 L 60 0 V 90 L 0 90 V 0 z" style="fill: rgb(33, 150, 243); stroke: rgb(12, 124, 213); stroke-width: 4; stroke-linejoin: round;"></path><g></g><text text-anchor="middle" x="30" y="107" font-size="12">3</text><text text-anchor="middle" x="30" y="124" font-size="12">InputLayer</text></g></g><g><g transform="translate(208, 45)"><path d="M 0 0.15873015873015817 L 60 0.15873015873015817 V 89.84126984126985 L 0 89.84126984126985 V 0.15873015873015817 z" style="fill: rgb(63, 81, 181); stroke: rgb(63, 81, 181); stroke-width: 4; stroke-linejoin: round;"></path><g></g><text text-anchor="middle" x="30" y="106.84126984126985" font-size="12">128</text><text text-anchor="middle" x="30" y="123.84126984126985" font-size="12">Sequential</text></g></g><g><g transform="translate(208, 235)"><path d="M 0 10.158730158730158 L 60 10.158730158730158 V 79.84126984126985 L 0 79.84126984126985 V 10.158730158730158 z" style="fill: rgb(63, 81, 181); stroke: rgb(63, 81, 181); stroke-width: 4; stroke-linejoin: round;"></path><g></g><text text-anchor="middle" x="30" y="96.84126984126985" font-size="12">2</text><text text-anchor="middle" x="30" y="113.84126984126985" font-size="12">Sequential</text></g></g><g><g transform="translate(312, 140)"><path d="M 60 90 L 0 185 V 95 L 31.57894736842105 45 L 0 -5 V -95 L 60 0 V 90 z" style="fill: rgb(255, 235, 59); stroke: rgb(255, 235, 59); stroke-width: 4; stroke-linejoin: round;"></path><g></g><text text-anchor="middle" x="30" y="202" font-size="12">130</text><text text-anchor="middle" x="30" y="219" font-size="12">Concatenate</text></g></g><g><g transform="translate(416, 140)"><path d="M 0 10 L 60 10 V 80 L 0 80 V 10 z" style="fill: rgb(156, 39, 176); stroke: rgb(156, 39, 176); stroke-width: 4; stroke-linejoin: round;"></path><g></g><text text-anchor="middle" x="30" y="97" font-size="12">4</text><text text-anchor="middle" x="30" y="114" font-size="12">Dense</text></g></g><g><g transform="translate(104, 140)"><path d="M 0 0 L 60 -95 V -5 L 28.42105263157895 45 L 60 95 V 185 L 0 90 V 0 z" style="fill: rgb(158, 158, 158); stroke: rgb(132, 132, 132); stroke-width: 4; stroke-linejoin: round;"></path><g></g><text text-anchor="middle" x="30" y="202" font-size="12">3</text><text text-anchor="middle" x="30" y="219" font-size="12">Split</text></g></g></g></g></svg>